<mxfile host="app.diagrams.net" modified="2022-04-18T13:57:26.700Z" agent="5.0 (Macintosh; Intel Mac OS X 10_15_7) AppleWebKit/537.36 (KHTML, like Gecko) Chrome/100.0.4896.88 Safari/537.36" etag="28-Wj-jC1igJiUJFaMIT" version="17.4.5" type="github">
  <diagram id="4KNdbh4Ket__J7hDHHc0" name="Page-1">
    <mxGraphModel dx="946" dy="614" grid="1" gridSize="10" guides="1" tooltips="1" connect="1" arrows="1" fold="1" page="1" pageScale="1" pageWidth="827" pageHeight="1169" math="0" shadow="0">
      <root>
        <mxCell id="0" />
        <mxCell id="1" parent="0" />
        <mxCell id="bL7AH7_fA7LtB24TAaaB-1" value="" style="rounded=0;whiteSpace=wrap;html=1;" parent="1" vertex="1">
          <mxGeometry x="100" y="110" width="640" height="300" as="geometry" />
        </mxCell>
        <mxCell id="bL7AH7_fA7LtB24TAaaB-2" value="" style="rounded=0;whiteSpace=wrap;html=1;" parent="1" vertex="1">
          <mxGeometry x="220" y="160" width="370" height="40" as="geometry" />
        </mxCell>
        <mxCell id="bL7AH7_fA7LtB24TAaaB-3" value="Submit" style="rounded=1;fillColor=#0057D8;align=center;strokeColor=none;html=1;fontColor=#ffffff;fontSize=12;sketch=0;" parent="1" vertex="1">
          <mxGeometry x="350" y="220" width="80" height="33" as="geometry" />
        </mxCell>
        <mxCell id="bL7AH7_fA7LtB24TAaaB-5" value="" style="rounded=1;whiteSpace=wrap;html=1;" parent="1" vertex="1">
          <mxGeometry x="220" y="270" width="370" height="60" as="geometry" />
        </mxCell>
        <mxCell id="bL7AH7_fA7LtB24TAaaB-7" value="Enter any number&amp;nbsp;" style="text;html=1;strokeColor=none;fillColor=none;align=center;verticalAlign=middle;whiteSpace=wrap;rounded=0;" parent="1" vertex="1">
          <mxGeometry x="230" y="165" width="110" height="30" as="geometry" />
        </mxCell>
        <mxCell id="bL7AH7_fA7LtB24TAaaB-8" value="Ans..." style="text;html=1;strokeColor=none;fillColor=none;align=center;verticalAlign=middle;whiteSpace=wrap;rounded=0;" parent="1" vertex="1">
          <mxGeometry x="230" y="285" width="60" height="30" as="geometry" />
        </mxCell>
        <mxCell id="vFrRcDJ90CeJDQklgMdT-2" value="" style="rounded=0;whiteSpace=wrap;html=1;" vertex="1" parent="1">
          <mxGeometry x="100" y="450" width="640" height="300" as="geometry" />
        </mxCell>
        <mxCell id="vFrRcDJ90CeJDQklgMdT-3" value="5&amp;nbsp;" style="text;html=1;strokeColor=none;fillColor=none;align=center;verticalAlign=middle;whiteSpace=wrap;rounded=0;" vertex="1" parent="1">
          <mxGeometry x="360" y="475" width="60" height="30" as="geometry" />
        </mxCell>
        <mxCell id="vFrRcDJ90CeJDQklgMdT-4" value="Increase" style="rounded=1;fillColor=#0057D8;strokeColor=none;html=1;fontColor=#ffffff;align=center;verticalAlign=middle;fontStyle=0;fontSize=12;sketch=0;" vertex="1" parent="1">
          <mxGeometry x="280" y="527" width="86" height="33" as="geometry" />
        </mxCell>
        <mxCell id="vFrRcDJ90CeJDQklgMdT-5" value="Decrease" style="rounded=1;fillColor=#0057D8;strokeColor=none;html=1;fontColor=#ffffff;align=center;verticalAlign=middle;fontStyle=0;fontSize=12;sketch=0;" vertex="1" parent="1">
          <mxGeometry x="414" y="527" width="86" height="33" as="geometry" />
        </mxCell>
        <mxCell id="vFrRcDJ90CeJDQklgMdT-6" value="5" style="rounded=1;whiteSpace=wrap;html=1;" vertex="1" parent="1">
          <mxGeometry x="350" y="470" width="80" height="40" as="geometry" />
        </mxCell>
      </root>
    </mxGraphModel>
  </diagram>
</mxfile>
